/* XPM */
static char *_a0bc4e2cf0343fccd2e043b7a71c2ceeOzlCa2jzDqxQSFc[] = {
/* columns rows colors chars-per-pixel */
"32 32 9 1 ",
"  c None",
". c black",
"X c white",
"o c #AA7C14",
"O c #F0E52E",
"+ c #524C4C",
"@ c #EDD30E",
"# c #FB0000",
"$ c yellow",
/* pixels */
"                                ",
"                                ",
"              ....              ",
"            ..XXXX..            ",
"           .XXXXXXXX.           ",
"           .XXXXXXX.            ",
"            .XXXXX.             ",
"             .oOOo.             ",
"             .oOOo.             ",
"            ..oOOo..            ",
"           .ooOOOOoo.           ",
"          .oOOOOOOOOo.          ",
"         .oOOOOOOOOOOo.         ",
"         .oOOOOOOOOOOo. ...     ",
"         .oOOOOOOOOOOo..ooo.    ",
"         .oOOOOOOOOOOo.o...o.   ",
"         .ooooo++oooooo.  .o.   ",
"         .oooo+@@+oooo.    .o.  ",
"         .ooo+@@@@+ooo.    .o.  ",
"         .ooo+####+ooo.    .o.  ",
"         .oo+######+oo.    .o.  ",
"         .o+#@@@@@@#+o.   .o.   ",
"         .oo++++++++oo....o.    ",
"         .oooooooooooooooo.     ",
"         .oOOOOOOOOOOo....      ",
"         .oOOOOOOOOOOo.         ",
"         .oOOOOOOOOOOo.         ",
"         .oOOOOOOOOOOo.         ",
"          .oOOOOOOOOo.          ",
"           .oooooooo.           ",
"            ........            ",
"                                "
};
