/* XPM */
static char *_b3f18527765476197c04a8f09ce4760pyf8L3UNYsN3vXth[] = {
/* columns rows colors chars-per-pixel */
"32 32 8 1 ",
"  c None",
". c black",
"X c #C39F14",
"o c #C30101",
"O c #DFD5D2",
"+ c #FB0000",
"@ c #1509D2",
"# c yellow",
/* pixels */
"                                ",
"              .......           ",
"             .XXXXXXX.          ",
"            .XXoooooXX.         ",
"            .XoXXXXXoX.         ",
"           .ooXXXXXXXoo.        ",
"           .XXXX...XXXX.        ",
"          .XXX.......XXX.       ",
"         .XXX.OO.O.OO.XXX.      ",
"        .XXX.OO.OOOOOO.XXX.     ",
"        .XXX.OO.OOO.OO.XXX.     ",
"         ....OO.OOO.OO....      ",
"            .OOOOOOOOO.         ",
"             .OOOOOOO.          ",
"              .......           ",
"               .+O+.            ",
"              .++O++.           ",
"             .O++O++O.          ",
"            .O..@@@..O.         ",
"             . .@@@. .          ",
"               .O.O.            ",
"               .O.O.            ",
"                . .             ",
"                                ",
"                                ",
"                                ",
"                                ",
"                                ",
"                                ",
"                                ",
"                                ",
"                                "
};
